# xmcd CD database file
#
# Track frame offsets:
#	150
#	23107
#	46365
#	68120
#	87832
#	91817
#	114927
#	139710
#	158422
#	182710
#	202675
#	226380
#	251317
#	265712
#
# Disc length: 4048 seconds
#
# Revision: 2
# Processed by: cddbd v1.4PL0 Copyright (c) Steve Scherf et al.
# Submitted via: CdAid 2001.05.15.01
#
DISCID=a10fce0e
DTITLE=Earth , Win and Fire - Elements Of Love: The Ballads
DYEAR=1900
DGENRE=
TTITLE0=Open Our Eyes
TTITLE1=Keep Your Head To The Sky
TTITLE2=Devotion
TTITLE3=Loves Holiday
TTITLE4=Ponta de Areia
TTITLE5=Be Ever Wonderful
TTITLE6=All About Love
TTITLE7=Can't Hide Love
TTITLE8=I'll Write A Song For You
TTITLE9=After The Love Is Gone
TTITLE10=Imagination
TTITLE11=Side By Side
TTITLE12=Spirit
TTITLE13=Reasons (Live)
EXTD=
EXTT0=
EXTT1=
EXTT2=
EXTT3=
EXTT4=
EXTT5=
EXTT6=
EXTT7=
EXTT8=
EXTT9=
EXTT10=
EXTT11=
EXTT12=
EXTT13=
PLAYORDER=
